# xmcd CD database file
#
# Track frame offsets:
#	150
#	24145
#	47040
#	78000
#
# Disc length: 1873 seconds
#
# Revision: 0
# Processed by: cddbd v1.4PL0 Copyright (c) Steve Scherf et al.
# Submitted via: CDex 1.50
#
DISCID=1c074f04
DTITLE=Diana Krall - Let's Face the Music and Dance (Enhanced CD)
DYEAR=1999
DGENRE=Jazz
TTITLE0=Let's Face the Music and Dance
TTITLE1=P.S. I Love You
TTITLE2=Diana Krall audio interview excerpts
TTITLE3=Video Track
EXTD=YEAR: 1999
EXTT0=
EXTT1=
EXTT2=
EXTT3=
PLAYORDER=
